PathFileType	4	(X/Y/Z)	c:/Users/goper/Files/vsCode/490R/osim_files/C05/C05_SSWS_04.trc
DataRate	CameraRate	NumFrames	NumMarkers	Units                	OrigDataRate	OrigDataStartFrame	OrigNumFrames
250.00	250.00	7	36	mm	250.0	3102	3545
                Frame#	Time	LPSIS			LASIS			LTH1			LTH2			LTH3			LTH4			LLFE			LMFE			LSH1			LSH2			LSH3			LSH4			LLMAL			LMMAL			LCAL			LMTP5			LTOE			LMTP1			RPSIS			RASIS			RTH1			RTH2			RTH3			RTH4			RLFE			RMFE			RSH1			RSH2			RSH3			RSH4			RLMAL			RMMAL			RCAL			RMTP1			RTOE			RMTP5		
		X1	Y1	Z1	X2	Y2	Z2	X3	Y3	Z3	X4	Y4	Z4	X5	Y5	Z5	X6	Y6	Z6	X7	Y7	Z7	X8	Y8	Z8	X9	Y9	Z9	X10	Y10	Z10	X11	Y11	Z11	X12	Y12	Z12	X13	Y13	Z13	X14	Y14	Z14	X15	Y15	Z15	X16	Y16	Z16	X17	Y17	Z17	X18	Y18	Z18	X19	Y19	Z19	X20	Y20	Z20	X21	Y21	Z21	X22	Y22	Z22	X23	Y23	Z23	X24	Y24	Z24	X25	Y25	Z25	X26	Y26	Z26	X27	Y27	Z27	X28	Y28	Z28	X29	Y29	Z29	X30	Y30	Z30	X31	Y31	Z31	X32	Y32	Z32	X33	Y33	Z33	X34	Y34	Z34	X35	Y35	Z35	X36	Y36	Z36

3102	12.40400	0.00000	0.00000	0.00000	-3732.01318	1012.65161	382.85760	-3557.11401	716.01111	434.20352	0.00000	0.00000	0.00000	-3629.53662	705.66101	421.09991	-3616.77539	646.22778	411.25580	-3562.22827	543.14001	397.38318	-3548.96265	540.62927	279.10422	0.00000	0.00000	0.00000	0.00000	0.00000	0.00000	-3483.26831	373.26501	406.38010	-3468.72119	334.98679	399.99396	-3383.58862	125.28123	353.53497	-3411.94604	134.25667	270.99670	0.00000	0.00000	0.00000	-3495.06543	25.00043	319.84702	0.00000	0.00000	0.00000	0.00000	0.00000	0.00000	-3732.10889	1013.18140	152.16342	0.00000	0.00000	0.00000	-3783.82788	697.77234	74.58616	0.00000	0.00000	0.00000	-3772.71924	621.51404	78.18710	0.00000	0.00000	0.00000	0.00000	0.00000	0.00000	-3839.03833	531.47205	214.46553	0.00000	0.00000	0.00000	0.00000	0.00000	0.00000	-3881.46289	409.73718	87.16737	-3900.03857	367.17340	89.95908	0.00000	0.00000	0.00000	0.00000	0.00000	0.00000	-3601.80078	112.67041	276.17966	0.00000	0.00000	0.00000	-3837.39160	554.41486	102.48949	0.00000	0.00000	0.00000
3103	12.40800	0.00000	0.00000	0.00000	-3736.21069	1011.80695	382.67365	-3560.56567	715.52625	433.99283	0.00000	0.00000	0.00000	-3632.99146	705.01453	420.92902	-3620.05444	645.60419	411.06937	-3565.35840	542.65454	397.05798	0.00000	0.00000	0.00000	0.00000	0.00000	0.00000	0.00000	0.00000	0.00000	-3485.79248	373.40161	406.35788	-3470.53979	334.91263	399.79367	-3383.88062	125.66177	353.58344	-3412.29614	134.47733	271.00497	0.00000	0.00000	0.00000	-3495.09448	24.86267	319.90015	0.00000	0.00000	0.00000	0.00000	0.00000	0.00000	-3736.73242	1012.41736	151.91724	0.00000	0.00000	0.00000	-3789.10376	697.14050	74.14987	0.00000	0.00000	0.00000	-3777.66455	620.72845	78.20080	0.00000	0.00000	0.00000	0.00000	0.00000	0.00000	-3843.55591	531.00690	214.40698	0.00000	0.00000	0.00000	0.00000	0.00000	0.00000	-3886.09668	409.01147	87.37852	-3904.73389	366.48859	90.21190	0.00000	0.00000	0.00000	0.00000	0.00000	0.00000	-3601.85986	112.58363	276.21927	0.00000	0.00000	0.00000	-3841.76538	553.63165	102.41323	0.00000	0.00000	0.00000
3104	12.41200	0.00000	0.00000	0.00000	-3740.34253	1010.94519	382.40369	-3564.13818	714.98969	433.75079	0.00000	0.00000	0.00000	-3636.46191	704.32129	420.62228	-3623.58203	644.95947	410.80664	-3568.52905	542.05804	396.65945	-3555.47876	539.44495	278.40543	0.00000	0.00000	0.00000	0.00000	0.00000	0.00000	-3488.16772	373.34961	406.00974	-3472.52832	334.87766	399.56555	-3383.94238	126.37181	353.18201	-3412.67627	134.77762	271.02176	0.00000	0.00000	0.00000	-3495.19409	24.79753	319.93420	0.00000	0.00000	0.00000	0.00000	0.00000	0.00000	-3741.40894	1011.68402	151.62610	0.00000	0.00000	0.00000	-3794.39697	696.63641	73.85031	0.00000	0.00000	0.00000	-3782.63623	619.94604	78.27453	0.00000	0.00000	0.00000	0.00000	0.00000	0.00000	-3848.25439	530.60522	214.42004	0.00000	0.00000	0.00000	0.00000	0.00000	0.00000	-3890.77441	408.33014	87.63243	-3909.36597	365.76389	90.51907	0.00000	0.00000	0.00000	0.00000	0.00000	0.00000	-3601.85400	112.44737	276.27350	0.00000	0.00000	0.00000	-3846.50781	553.06616	102.53201	0.00000	0.00000	0.00000
3105	12.41600	0.00000	0.00000	0.00000	-3744.61768	1010.13708	382.17123	-3567.86938	714.44098	433.46634	0.00000	0.00000	0.00000	-3640.05957	703.58881	420.31189	-3627.01416	644.26898	410.48880	-3571.79932	541.39655	396.19559	-3559.03223	538.80847	277.99774	0.00000	0.00000	0.00000	0.00000	0.00000	0.00000	-3492.17480	374.40063	406.18436	-3474.49316	334.76407	399.29965	-3384.69653	126.60196	353.72867	-3413.13574	135.15491	271.03864	0.00000	0.00000	0.00000	-3495.23853	24.68693	319.96152	0.00000	0.00000	0.00000	0.00000	0.00000	0.00000	-3746.00244	1010.92297	151.29457	0.00000	0.00000	0.00000	-3799.76465	696.20093	73.70876	0.00000	0.00000	0.00000	-3787.64990	619.24243	78.32484	0.00000	0.00000	0.00000	0.00000	0.00000	0.00000	-3853.09985	530.23029	214.56908	0.00000	0.00000	0.00000	0.00000	0.00000	0.00000	-3895.49487	407.60864	87.97516	-3913.92236	364.98190	90.88238	0.00000	0.00000	0.00000	0.00000	0.00000	0.00000	-3601.87207	112.34317	276.31985	0.00000	0.00000	0.00000	-3851.43140	552.58618	102.71381	0.00000	0.00000	0.00000
3106	12.42000	0.00000	0.00000	0.00000	-3748.91577	1009.31396	381.85150	-3571.66992	713.87323	433.14276	0.00000	0.00000	0.00000	-3643.84814	702.92279	419.92303	-3630.61938	643.53400	410.10715	-3575.27783	540.83850	395.74503	0.00000	0.00000	0.00000	0.00000	0.00000	0.00000	0.00000	0.00000	0.00000	-3494.64209	374.29507	405.88531	-3476.56274	334.65686	399.00867	-3385.28931	127.30770	353.46951	-3413.63013	135.59547	271.05957	0.00000	0.00000	0.00000	-3495.32935	24.58444	320.00912	0.00000	0.00000	0.00000	0.00000	0.00000	0.00000	-3750.65967	1010.26111	150.97681	0.00000	0.00000	0.00000	-3805.14136	695.91571	73.64816	0.00000	0.00000	0.00000	-3792.63135	618.64246	78.44107	0.00000	0.00000	0.00000	0.00000	0.00000	0.00000	-3858.00854	529.88623	214.72725	0.00000	0.00000	0.00000	0.00000	0.00000	0.00000	-3900.28564	406.85745	88.35349	-3918.52734	364.24249	91.30614	0.00000	0.00000	0.00000	0.00000	0.00000	0.00000	-3601.94971	112.29453	276.36780	0.00000	0.00000	0.00000	-3856.51782	552.15900	103.01437	0.00000	0.00000	0.00000
3107	12.42400	0.00000	0.00000	0.00000	-3753.14600	1008.47601	381.49597	-3575.41382	713.24603	432.74084	0.00000	0.00000	0.00000	-3647.64575	702.20490	419.49353	-3634.39185	642.86169	409.66068	-3578.66772	540.14838	395.17200	-3566.40430	537.63141	277.06702	0.00000	0.00000	0.00000	0.00000	0.00000	0.00000	-3496.22949	373.55154	405.31915	-3478.73340	334.58725	398.64932	-3386.45020	127.80188	354.29077	-3414.10547	135.97925	271.09924	0.00000	0.00000	0.00000	-3495.38745	24.49290	320.05258	0.00000	0.00000	0.00000	0.00000	0.00000	0.00000	-3755.25781	1009.61719	150.57521	0.00000	0.00000	0.00000	-3810.52856	695.66565	73.77568	0.00000	0.00000	0.00000	-3797.76196	618.15942	78.58005	0.00000	0.00000	0.00000	0.00000	0.00000	0.00000	-3863.05347	529.63501	215.01840	0.00000	0.00000	0.00000	0.00000	0.00000	0.00000	-3905.08447	406.11551	88.78557	-3923.06177	363.40604	91.76077	0.00000	0.00000	0.00000	0.00000	0.00000	0.00000	-3602.02124	112.17792	276.41980	0.00000	0.00000	0.00000	-3861.78857	551.92889	103.44137	0.00000	0.00000	0.00000
3108	12.42800	0.00000	0.00000	0.00000	-3757.57666	1007.71942	381.18164	-3579.24609	712.57727	432.27328	0.00000	0.00000	0.00000	-3651.50342	701.43652	418.96451	-3638.15991	642.14935	409.15747	-3582.25293	539.52924	394.60419	-3570.48462	537.03748	276.70566	0.00000	0.00000	0.00000	0.00000	0.00000	0.00000	-3499.10742	373.66840	405.00085	-3480.97925	334.60995	398.32285	-3386.28491	128.33896	354.05829	-3414.58569	136.47021	271.17163	0.00000	0.00000	0.00000	-3495.45532	24.40203	320.10764	0.00000	0.00000	0.00000	0.00000	0.00000	0.00000	-3759.97241	1009.02887	150.21696	0.00000	0.00000	0.00000	-3815.99707	695.53796	73.90729	0.00000	0.00000	0.00000	-3802.87549	617.76489	78.80889	0.00000	0.00000	0.00000	0.00000	0.00000	0.00000	-3868.06763	529.39154	215.28282	0.00000	0.00000	0.00000	0.00000	0.00000	0.00000	-3909.86523	405.40170	89.26131	-3927.59814	362.61993	92.25852	0.00000	0.00000	0.00000	0.00000	0.00000	0.00000	-3602.13037	112.14615	276.47598	0.00000	0.00000	0.00000	-3867.25684	551.76483	103.93757	0.00000	0.00000	0.00000
